# xmcd
#
# Track frame offsets: 
#        150
#        22254
#        39241
#        62939
#        79524
#        97290
#        117797
#        142099
#        166172
#        188241
#        214687
#        234923
#        273518
#
# Disc length: 3880 seconds
#
# Revision: 2
# Processed by: cddbd v1.4b41PL3 Copyright (c) Steve Scherf et al.
# Submitted via: ExactAudioCopy v0.90a11
#
DISCID=b60f260d
DTITLE=Marta Sánchez - Los mejores años de nuestra vida [CD2)
DYEAR=1900
DGENRE=Blues
TTITLE0=Desconocida (bombay mix)
TTITLE1=Desconocida (fun mix radio edit by jean)
TTITLE2=Desconocida (fun mix extended mix by jean)
TTITLE3=Desconocida (Lazy mix radio edit by jean)
TTITLE4=Desconocida (Latin mix)
TTITLE5=Perfect stranger
TTITLE6=Desperate love (extended)
TTITLE7=Desesperada (extended)
TTITLE8=Where the love never ends
TTITLE9=Quiero más de tí (LB classic mix)
TTITLE10=Quiero más de tí (noryb siul big ben dub)
TTITLE11=Quiero más de tí (sweet briz extended)
TTITLE12=Quiero más de tí (sweet briz radio edit)
EXTD=ID3G:   0
EXTT0=
EXTT1=
EXTT2=
EXTT3=
EXTT4=
EXTT5=
EXTT6=
EXTT7=
EXTT8=
EXTT9=
EXTT10=
EXTT11=
EXTT12=
PLAYORDER=
